<mxfile host="65bd71144e">
    <diagram id="HIP3nbAZw_EuaXWnEj3U" name="Page-1">
        <mxGraphModel dx="1382" dy="431" grid="1" gridSize="10" guides="1" tooltips="1" connect="1" arrows="1" fold="1" page="1" pageScale="1" pageWidth="850" pageHeight="1100" math="0" shadow="0">
            <root>
                <mxCell id="0"/>
                <mxCell id="1" parent="0"/>
                <mxCell id="8" value="http://ics2o.mths.ca" style="swimlane;whiteSpace=wrap;html=1;startSize=20;fillColor=#CCE5FF;" vertex="1" parent="1">
                    <mxGeometry x="45" y="390" width="760" height="420" as="geometry"/>
                </mxCell>
                <mxCell id="9" value="" style="whiteSpace=wrap;html=1;fillColor=#FFFFFF;" vertex="1" parent="8">
                    <mxGeometry y="20" width="760" height="40" as="geometry"/>
                </mxCell>
                <mxCell id="10" value="&lt;h1&gt;&lt;font color=&quot;#cce5ff&quot;&gt;Long Division&lt;/font&gt;&lt;/h1&gt;" style="text;html=1;align=center;verticalAlign=middle;resizable=0;points=[];autosize=1;strokeColor=none;fillColor=none;" vertex="1" parent="8">
                    <mxGeometry x="275" y="5" width="180" height="70" as="geometry"/>
                </mxCell>
                <mxCell id="11" value="&lt;b&gt;Number&lt;/b&gt;" style="text;strokeColor=none;align=center;fillColor=none;html=1;verticalAlign=middle;whiteSpace=wrap;rounded=0;labelBackgroundColor=none;fontFamily=Times New Roman;fontColor=#CCE5FF;" vertex="1" parent="8">
                    <mxGeometry y="135" width="60" height="30" as="geometry"/>
                </mxCell>
                <mxCell id="12" value="1" style="shape=partialRectangle;whiteSpace=wrap;html=1;top=0;left=0;fillColor=none;labelBackgroundColor=none;fontFamily=Times New Roman;fontColor=#CCE5FF;" vertex="1" parent="8">
                    <mxGeometry x="60" y="140" width="100" height="20" as="geometry"/>
                </mxCell>
                <mxCell id="13" value="&lt;b&gt;&lt;br&gt;&lt;font color=&quot;#0a58f5&quot;&gt;Calculate&lt;/font&gt;&lt;br&gt;&lt;/b&gt;" style="labelPosition=center;verticalLabelPosition=middle;align=center;html=1;shape=mxgraph.basic.shaded_button;dx=10;fillColor=#E6E6E6;strokeColor=none;whiteSpace=wrap;labelBackgroundColor=none;fontFamily=Times New Roman;fontColor=#CCE5FF;" vertex="1" parent="8">
                    <mxGeometry x="50" y="220" width="80" height="50" as="geometry"/>
                </mxCell>
                <mxCell id="14" value="&lt;h3&gt;The answer is 1&lt;/h3&gt;" style="text;strokeColor=none;align=center;fillColor=none;html=1;verticalAlign=middle;whiteSpace=wrap;rounded=0;labelBackgroundColor=none;fontFamily=Times New Roman;fontColor=#0A58F5;" vertex="1" parent="8">
                    <mxGeometry x="-65" y="280" width="280" height="30" as="geometry"/>
                </mxCell>
                <mxCell id="16" value="1" style="shape=partialRectangle;whiteSpace=wrap;html=1;top=0;left=0;fillColor=none;labelBackgroundColor=none;fontFamily=Times New Roman;fontColor=#CCE5FF;" vertex="1" parent="8">
                    <mxGeometry x="60" y="165" width="100" height="20" as="geometry"/>
                </mxCell>
                <mxCell id="17" value="&lt;b&gt;Number&lt;/b&gt;" style="text;strokeColor=none;align=center;fillColor=none;html=1;verticalAlign=middle;whiteSpace=wrap;rounded=0;labelBackgroundColor=none;fontFamily=Times New Roman;fontColor=#CCE5FF;" vertex="1" parent="8">
                    <mxGeometry y="160" width="60" height="45" as="geometry"/>
                </mxCell>
                <mxCell id="18" value="" style="shape=image;imageAspect=0;aspect=fixed;verticalLabelPosition=bottom;verticalAlign=top;image=data:image/jpeg,/9j/4AAQSkZJRgABAQAAAQABAAD/2wCEAAkGBxAQEhURExEWEBUTEBgSEhcVFQ8WFhIQGBEYGBgWFxUYHSkgGB0lIhYVIzEhJSkrLjouFx8zOD8vNygtMCsBCgoKDg0OGxAQGishHyUrLS0tKystLS0wLy8rLS0tKy0rMS0tLS0tLSstLS03Ny0rNS0tLS0tLS0vKy0rLSsrLf/AABEIAKgBLAMBEQACEQEDEQH/xAAbAAEAAgMBAQAAAAAAAAAAAAAAAgUDBAYBB//EAD4QAAIBAgQEAwYCCAQHAAAAAAABAgMRBBIhMQUTQVEGImEycYGhscEUkSNCUoKSotHhcqPC8TM0NWJzg5P/xAAaAQEBAAMBAQAAAAAAAAAAAAAAAQIEBQMG/8QAMBEBAAICAQMDAgQGAgMAAAAAAAECAxEEEiExBUFRE2EiccHRFDKRobHwgeEGI0L/2gAMAwEAAhEDEQA/APp5sOOAAAAAAAAAAAAAAAAAAAAAAAAACj8U8QnRhCMHlc27tbqMUtF2vdfkHX9I4uPNkmbxuIjwxcDxcqkPNJzadtd/77nF9RmfqR8aX1HBXFn1SNRMKviFOMa8stldq9ujaTf9Tq8G0zgibPeuCeZxoxW7/H6NnMk9HmTW9mtb7a/A5/qGK85OuI7S2fRr4+Njtxcloi9JmZ7x79/7e/wjLGxU1CMfMtJSv+te+i7paX9/ZEvg+nhi8x+L9/2dClbZrTfq/BM9o+Y1/if98sk5PTV2172uc/czDc6axbeo2jKeqXv+mn3M5x2ikXZd9stV2gm3ZZ9F1fls2l+R6VxXth3HjbW6o/idRHfp7z8d+0NSfEatObjB5LWT0Tv16+863A43RTqt5lo836fInUxuIdXgK7qU4zejlG795tT2l8rnpGPJNY9pZyPIAAAAAAAAAAAAAAAAAAAAAAAAAAAAAAAK/jmAhWpNSunF5oNdJbfk7mGS8UrNp9m3wuVfj5Oqvv5UEKaw7UE7yyrO0/139rWObOO/L/H4j2fUYKRzsc3yR232/KGi41EnUnF67yadr37nWpbFEfTrMdvZhSLUvGo1qWbCYyL0emul+pnExrUvn/VPReTPItlw/i65nx5jfz9mtTwlSdW0N5Sck7ryrd3NXkXpWkzfw+rxY44+KuOZ8REf0hf4jBt0nGOsr31/Wyy2OJx71rk3bw4tPULfxUWy/wAsbj8lbho336rQ6HqF9Vivz3fQ4+VhzTauO2+mdT9kK0nnd/TL/ht0+Nz24cxOGHrSsRvXu3KfCFNxlmsnFOa65uy7aW+JMvqNMf4axt8zyuXNM16xHv2/383T0YpRSirJJJLsrG1W8XrFo93AvMzaZnymZMQAAAAAAAAAAAAAAAAAAAAAAAAAAAAAAAhXinFp9jDJSL1ms+6xOu7jcTJuTm1pOz06PLt8hTD9KkVh9N6H6rhvg+nedWrv+m+0/wB3QyUZ0WtHF07elrHzcWtXJv323o31fdx+Bw0pSs01l39JW0X3PpO967x6Yc31TBw9RknvPtHn8/yZsDVkpRkt7q/56/c9ORFZxWi3jTypM3mJjvtHiNSpzZTd1eUnB/8AbfS3wsafEnHOKIr/AM/m6EYK9E0mPPltLGp207O/10NjmYZy4tR5fN+kcGeJnnLae07jX232mWzUlC6vZ2TfuXc+fpGTWq779n1lrVr3mW3wrHxmlF6Nysr9W9jayen5YtER3+75Lm47TltkiO093QxVlY62OkUrFY9nImdvTNAAAAAAAAAAAAAAAAAAAAAAAAAAAAAAAANAc3xHh8qasmnBvKne0knfRLq1bfTc9Ytvs1a0rgv9We+u8R8z9/t/nw9wShGm4P2VFvVva9/9jkeo8bUxkr7zp1eH6ryuTl1/9ee0KvA4vO30vqv8PS76m7jmnGxatPb9W3616XyeTyaWxxvdYiZ8REx+jflg4qPNS81/Nbtd3du+xy+XzJyz01/lbfpWPPxMkYc/xOvdpcSqJKOma0r+5Hp6bW3VNvZ2ubS2THOOl+mZ92ph8LUlByjF2XXoda3Ix1t0zPf4amPDabRW3Z0PBKajSTtrLWXq7dfofPcq0/VmPhxvUMlrci0W9p1CPDeES5zqNZIRqNwT3dm7WXRdTv4rzOKvV51DHPzI+l0R3mY7uiirlcuI2ypEZaGgaYSsAAAAAAAAAAAAAAAAAAAAAAAAAAAAAABr47Dc2Djezumn2kixOpYZKdddKCtQlF5Zq14v3NXa/v8AE53qWad1rH5u9/43wq0680z38a+I8/3aGC4fUpNyteCsk+ttenpZX95q8nkVzUr8vof4nHXL9KZ7rbD4jl051N7ZUve3ZfU1ceGcmSKT22zyxFrxVSYlXu9szs0ttT6PHEUp0R4gvxY64tWWzW4lONNUl5VtdaNRS2+P9TXpwsf1fqT3/P5ePLpFNTHusPCuue92opW7Jtv+h75ePjtaLzHd856lqNT7y6NIycrSdNElYSIyAMUtzJhLwIAAAAAAAAAAAAAAAAAAAAAAAAAAAAAANXiNGM46rZrXrG73TNPnR/6pnTpel5LUzxqdfqr8fiLfo1p5dX1Sd9jh0nU7fSRxKZpi9/aVJWlljKF9Hb7NP5HfwxXNFckRqYbua1ax1T59manRTik1dvr69Dlzysk5Orfv4ek27blY4bw/mh+l0k7NW1ya6+9vbt7zuxOnzHP9Y+paK4o7R7/P/S4wWEhSWSCsr3fVt92xM7cTJltltu0twxQAAAPHFFTUMRWAAAAAAAAAAAAAAAAAAAAAAAAAAAAAAANJ6PqS0RaNSyraazuPKr4hw1vzw1drNPqr6Wfpc5ubgRreN3uD6x0z05vHz+6pcLOSetpOL+Gh1OPijHjisPlfUebk5HJtlmZjv2+0R4XOC4ZGLUn6OMf2XZb/ABuadeFSMk3+/aH0F/WM2Tjxj99amVlY23KSUWRdJkZAAAAAjKBWMwxlYgAAAAAAAADWp4+jKo6SqRc43vFPVW30+KA2QAAAAAAAAGjX4zhqcnCdaEZR0ab1WlwJ4bimHqu0K0JvspRv+W4E8djadCGepLJG6V7Ser20SAzUqilFSi7qUVJPumrpgSA1cbxKjRcI1J5XUdoaSeZppdFp7S37gbQEK9WMIynJ2jGLlJ66RSu3oBjwWMp1oKpTlmi20nZrVOz0auBsIK1p4Cm6nMa1tqujfdl6p1p52w1m3VMNkj0FIG3uZg2ZmDZmYNmZg2ZmDZmYNmZg2iEAAAAAAAAAHG8I/wCqV/dP6xL7DsiCg4p4jdOr+Ho0XiKi9pJ2UdL20Tv67Iug4X4jc6v4etReHqP2U3dS0vbVK3pumQauI8WyjWqUI4d1JRm4Qyybc5J9Vl0VrvS5dJtscM8SSnWWHr0Hh5y9i7dnpondaXs7MKy8U49KFTkUKMsRUirztdRgntd2327bogrX40kmoSwzjUz5Zpzay7W3je+r0LpNuuZFcI8HTrcUqU6kc8XdtXktVSTWqaZUWvFPB+HlBujF0ppXj5pyTa6PM3b3obNKijxhVcDJV4Ovyq0I2c5Qbi03FuS1urSXwRddxdy48qEsPRdLLTq0qeWedvImkrNNa201vs7mItONcSjhqUqrWa1lGN7ZpN6K/wCb+AVzvFOI06qwdSrh7urKTp2qyXLXMppS0Xmv5X8Co38d4jnzpUMPh3iJU3abvZJrdbd9Lu2oEVxepUp14V8LKlkw8ptOUkqkbWcVK2m+6uBDhfF6GHwUaqpunFzko01Jzbnmeik/c36AQXinERSqVMHKNKTXmzPRPZ6rr62Gl2sOL+IFRpU61OKqqr7N24/Z6+hFlXV/FlZLmrBy5N/bbaum7Xva32LpNujwOKhWpxqwd4zjdd/VP1Wq+BBnAAAAAAAAAAAAAAAAAAHDcPxVOlxKvOpNQj+kV5Oyvmjp8ijqqfGsLJqKr0220klJXbbskiDl/DOMp0sXiedONOUpySc2oq6qyzK707fkWUPE+MpVcVhuTONSUZxTcGmrurHKrrTv+YglPw40+JYj/wBtv/tEHul4snbHYX0cH/n/ANmCWxwLHUqNfFxq1I05vENpzajmheVrN9r/ADApPEeIpVsbCVOSmr04ycdU5Z+/XTKvgWB9FZirg5Y2nQ4nUqVHlim03ZvV0kloi+yLbiHjLDxhLlOVSbTUfK0k+jea2g0bcrQoNYGrUe08RTivXJGd3/P8i+6ezo/E2B5mBpVEtaVOnL9xwipf6X+6RZU2O4lPH/hsOr30VR96l8rl8IrN+8y6PK38Y01GrgopWUZtJdkp0kkQlkqcIrKtVr4LEQvOb5sHZ2nmeZPR9b7pNXAwx49VqQxOGrwjGpDD1HeGzcY6pq777oCixLthcI5aw5lbN6/pI3+Vyo7HjnF8LLDVUq1OWalJQipRcnJx8vlWq1sRXIYvEr8FSjfzKrUaXZNLX88xInc6etsdopFp8S7XjrSwVTTTkWXpokvsHm1/A8r4SPpOa/mv9yyL8gAAAAAAAAAAAAAAASjG5FiHrgNrMOQ4j4M51WdX8Rlzzcrcq9ru9r51cy2w0jgvBPLqQqfiM2SpGduVa+WSdr53bYbNNvj3hOGIm6sJ8qb9ry5oyffdWY2aOA+E4YeaqznzZx9nTLGL72u7sbNM3DPD3JxM8Tzc2dz8uS1s883tZne3uGzRxnw68RXhX52TIorLkzXyzct8yte/YCk8XQwksQ1Nzo1MsW5xipxmmtM0bppra6ECk4dh4TxVGFJymubFuUkot2lmk1FN2Vk+rKj6mYsnLcW8H8+tOr+IyZ2nl5Wa3lS3zq+3Yu00x4XwLSTvUrSqLtGKhf3u7Y2aXHFuCRrUFh4NUYxkmrRzJJX0tdd97kVuwwi5Soy8y5SpS0tmWTK9OgFJwHwqsLV5rq81qLUVky5W+t8zvpdfEu003ON8F/Ezoz5mTkycrZc2a8oO18yt7HruQVHEPBTqVJ1IV8uecptOGzlJtq6fr2Ls0y4fwxDDUK8s7qTlQnG9sqUct2krve2/0JaZ12euGsTeInxtTUqMXTjBuUox8yjrlUpbtLvqzU67fL6CvGxV8Vhnw3hGM486VfJT1m0o+aMU3dXbsrWetjapbdYcLkYunNNI+f8ALbp+FVXw9K0+RdyqtZM7yzUckfaW0Yr4tlTP/N0x4js6HiHDnVw7w+fLeEY5st/Za1y3W9u/UPFHgHC/wtLlZ+Z53K+XLvbS132AsQAAAAAAAAAAAAAAAGWGxGceHpFY5rUyYSiEAAAABVcT8PYbESz1IvNZK8ZSWi202+RdifC+B4fDNypw8zVnKTcpW7K+3wIaWQAAAAAAAGDH4h0qc6iWbJFyt6LV/K5JemKsXvFZnW0pRVSFuk4dH0a6MTG40lbTjvuPaXPz4XGDlGWZuWlPLBSz2u98yyvvoa00mJ072PlVyU6u0fP2Z4U3WSwsf+HD/mZrZyvmdGL6u78z6LTdmxWNRpzM2SOucs+Z8fvK+MmiAAAAAAAAAAAAAAAAAEoK4WI2yJGLMA8cblTSEo2KxmNIhAAAAAAAAAAAAAAHkoppp6pqz9UCJ0qqFDF0YqlDlVIxWWnOcpqUYdFKKXmaWl01sGxa2K09U738Ob8T43E0aig67m3TUrpKChJtryJarRbtt6mMxuXQ4kUmk6r57fLsuH04RpQVNZYZE4r0avf1bvuZOVkmZtPV5bAYAAAAAAAAAAAAAAAACagTbLpexjYLEaSIoAAjMqSxlYAAAAAAAAAAAAAAAAD514yqXxU1+zGEf5E/uR2eHGsUOy8M1s+FpPtDJ/A3H7Fc3k11llZh4AAAAAAAAAAAAAAAEoysFidPc5NL1GcaOozjR1GcaOozjR1GcaOpGUrlSZ28CAAAAAAAAAAAAAAAHP4jgdLE1K1R+WSnkja1nJQWsrrv9DLtCxly61FphacHhBUYKEVBW1iuk07S+aZJTrm/e07bhAAAAAAAAAAAAAAAAAAAAAAAAAAAAAAAAAAAAAAAAADT4ZtU/wDPUv8Ax3+liyxqYDSVaPRVcy/fhGT+bYkr5mG4RkAAJxgTbKIHAbOlBorEAAAAAAAAAAAAAAAAAAAAAAAAAAAAAAAAAABp4Xy1asP2stVfGOV/OPzLPhjHmYMDrOtLvVUf4acV9biSvmW4RkAAMxi9ACM0WEljKwAAAAAAAAAAAAAAAAAAAAAAAAAAAAAAAAAA0Vg5yrKtKeVQThCEb2lF9Zt797Jad2Hp1Viuojv8/s84bhatFyjKaqxlKU1J+WacnezWzW+t/wCwvNJjdY03w8wABliyM4l6RXkipLG0Vhp4AAAAAAAAAAAAAAAAAAAAAAAAAAAAAAAAAAD1ICSh6k2y09yIbNQZENmoeqwV7cilwPJalSUcnqNsdIFQAAAAAAAAAAAAAAAAAAAAAAAAAAAAAAAAAAAAAAAAAAAAAAAAAAAAAAAAAAAAAAAAAAAAAAAAAAAAAAAAAAAAAAAAAAB//9k=;" vertex="1" parent="8">
                    <mxGeometry x="345" y="102" width="300" height="168" as="geometry"/>
                </mxCell>
            </root>
        </mxGraphModel>
    </diagram>
</mxfile>